:FULLY-SPECIFIED
:FORCE-ALL-JOINTS-BE-3DOF
:DEGREES
2039
root -3.2616 15.2008 22.2781 898.213 -9.4014 173.349
lfemur -14.8693 12.6794 -22.28
ltibia 56.3495 -0 0
lfoot -24.4145 17.1903 -0.0859311
ltoes -41.397 0 0
rfemur -51.5291 -10.6156 12.9626
rtibia 57.0732 -0 0
rfoot 2.4967 -2.04103 0.604545
rtoes -3.10574 0 0
lowerback 15.2812 -0.712294 -8.43546
upperback -0.528987 -2.36587 2.06426
thorax -8.7662 -0.731272 7.59158
lowerneck -2.49034 -3.48361 -6.21155
upperneck 6.98943 -4.58826 1.10356
head 2.85997 -2.4714 1.27697
lclavicle 3.16698e-14 8.95968e-15 5.55021e-31
lhumerus -0.719391 -35.6517 84.6814
lradius 64.6933 -0 0
lwrist -1.97008 0 0
lhand -20.1421 38.6761 -0.0221211
lfingers 7.12502 -0 0
lthumb 0.689662 67.4211 -0.119095
rclavicle -3.14171e-14 -1.21258e-14 6.09425e-31
rhumerus 15.532 10.6588 -72.8392
rradius 120.193 -0 0
rwrist -36.7137 0 0
rhand 55.2301 -47.9555 -0.801715
rfingers 7.12502 -0 0
rthumb 27.1423 -61.5079 0.0313074
2040
root -3.26541 15.2056 22.0939 897.863 -10.239 173.527
lfemur -13.0929 11.7465 -22.0156
ltibia 56.3702 -0 0
lfoot -24.6467 17.7821 -0.108812
ltoes -41.3972 0 0
rfemur -52.1489 -10.7703 12.9794
rtibia 53.205 -0 0
rfoot 5.41196 -1.53787 0.630285
rtoes -2.4143 0 0
lowerback 15.1515 -0.581494 -8.35997
upperback -0.560002 -2.15297 2.19863
thorax -8.76456 -0.626372 7.64687
lowerneck -2.21055 -3.81038 -6.68754
upperneck 7.25919 -5.05479 1.24264
head 2.94148 -2.72548 1.39097
lclavicle 3.72115e-14 8.83869e-15 5.31333e-31
lhumerus -1.65879 -35.5542 85.0997
lradius 67.937 -0 0
lwrist -1.66074 0 0
lhand -19.8135 38.5284 -0.0170621
lfingers 7.12502 -0 0
lthumb 0.166181 67.8068 -0.17625
rclavicle -2.64416e-14 -1.25059e-14 7.8281e-31
rhumerus 19.4093 9.34193 -72.2981
rradius 115.931 -0 0
rwrist -33.9957 0 0
rhand 58.3972 -48.4702 -0.559929
rfingers 7.12502 -0 0
rthumb 26.5984 -61.6462 0.0326265
2041
root -3.27233 15.2092 21.9048 897.514 -10.9536 173.731
lfemur -11.3751 10.8319 -21.7876
ltibia 56.3978 -0 0
lfoot -24.9024 18.4334 -0.131214
ltoes -41.3973 0 0
rfemur -52.6103 -10.8853 12.993
rtibia 49.6044 -0 0
rfoot 8.35404 -1.02945 0.630285
rtoes -1.74973 0 0
lowerback 14.8445 -0.438836 -8.15285
upperback -0.532614 -1.89101 2.26898
thorax -8.61271 -0.516754 7.53409
lowerneck -1.92782 -4.15302 -7.05193
upperneck 7.45086 -5.54498 1.34477
head 2.99486 -2.98709 1.47303
lclavicle 4.26188e-14 8.72064e-15 4.9694e-31
lhumerus -3.1601 -35.3865 85.7649
lradius 71.24 -0 0
lwrist -1.55401 0 0
lhand -19.5273 38.3998 -0.0119671
lfingers 7.12502 -0 0
lthumb -0.448051 68.2597 -0.238769
rclavicle -2.09665e-14 -1.29242e-14 9.35462e-31
rhumerus 22.9186 8.11334 -71.886
rradius 111.139 -0 0
rwrist -31.1222 0 0
rhand 61.0073 -48.8842 -0.339377
rfingers 7.12502 -0 0
rthumb 26.0494 -61.7858 0.0326265
2042
root -3.28162 15.2068 21.7152 897.114 -11.4771 173.989
lfemur -9.74637 9.95459 -21.597
ltibia 56.4317 -0 0
lfoot -25.1784 19.1357 -0.15211
ltoes -41.4343 0 0
rfemur -52.8984 -10.957 13.0019
rtibia 46.348 -0 0
rfoot 11.2693 -0.526291 0.604545
rtoes -1.12303 0 0
lowerback 14.5745 -0.248299 -7.82483
upperback -0.477313 -1.55162 2.32165
thorax -8.46736 -0.376232 7.31832
lowerneck -1.78362 -4.5135 -7.41086
upperneck 7.69028 -6.04796 1.42839
head 3.09333 -3.25561 1.54426
lclavicle 4.7838e-14 8.6067e-15 4.53178e-31
lhumerus -5.16762 -35.139 86.6472
lradius 74.5727 -0 0
lwrist -1.3217 0 0
lhand -19.2913 38.2938 -0.00728154
lfingers 7.12502 -0 0
lthumb -1.14384 68.7731 -0.303666
rclavicle -1.51166e-14 -1.3371e-14 1.0544e-30
rhumerus 26.0166 7.0041 -71.5854
rradius 105.892 -0 0
rwrist -28.1276 0 0
rhand 62.9763 -49.1897 -0.160557
rfingers 7.12502 -0 0
rthumb 25.5055 -61.9241 0.0313074
2043
root -3.294 15.2028 21.5257 896.764 -11.9125 174.118
lfemur -8.23677 9.13348 -21.4427
ltibia 56.4709 -0 0
lfoot -25.4712 19.8804 -0.170568
ltoes -41.5409 0 0
rfemur -52.9978 -10.9817 13.0051
rtibia 43.5121 -0 0
rfoot 14.1041 -0.0388352 0.555001
rtoes -0.544908 0 0
lowerback 14.2891 -0.0767466 -7.61554
upperback -0.499185 -1.26061 2.32717
thorax -8.38527 -0.246462 7.13237
lowerneck -1.56668 -4.78235 -7.65745
upperneck 8.03605 -6.44127 1.39008
head 3.20105 -3.47711 1.55965
lclavicle 5.28152e-14 8.49803e-15 4.01774e-31
lhumerus -7.62382 -34.7999 87.7143
lradius 77.9054 -0 0
lwrist -0.648238 0 0
lhand -19.1132 38.2138 -0.00345578
lfingers 7.12502 -0 0
lthumb -1.91157 69.3399 -0.367979
rclavicle -9.0169e-15 -1.3837e-14 1.12982e-30
rhumerus 28.6588 6.04282 -71.3768
rradius 100.268 -0 0
rwrist -25.0465 0 0
rhand 64.2197 -49.3795 -0.0422133
rfingers 7.12502 -0 0
rthumb 24.9766 -62.0586 0.0287655
2044
root -3.30855 15.1975 21.3299 896.378 -12.2025 174.276
lfemur -6.87626 8.38763 -21.3224
ltibia 56.5147 -0 0
lfoot -25.7777 20.6591 -0.185795
ltoes -41.7106 0 0
rfemur -53.0211 -11.0142 12.9953
rtibia 41.1734 -0 0
rfoot 16.8049 0.422842 0.485417
rtoes -0.0261361 0 0
lowerback 13.9297 0.133994 -7.33748
upperback -0.464749 -0.90402 2.31158
thorax -8.2095 -0.095303 6.86806
lowerneck -1.55852 -5.0361 -7.87449
upperneck 8.51845 -6.79767 1.32082
head 3.39262 -3.68335 1.5538
lclavicle 5.74968e-14 8.39582e-15 3.4481e-31
lhumerus -10.4691 -34.3571 88.9313
lradius 81.2084 -0 0
lwrist 0.431162 0 0
lhand -19.0006 38.1632 -0.000910538
lfingers 7.12502 -0 0
lthumb -2.7419 69.9534 -0.42893
rclavicle -2.7923e-15 -1.43125e-14 1.15565e-30
rhumerus 30.7989 5.25572 -71.2405
rradius 94.3411 -0 0
rwrist -21.9135 0 0
rhand 64.653 -409.445 0
rfingers 7.12502 -0 0
rthumb 24.4726 -62.1867 0.0251885
2045
root -3.3255 15.1816 21.1391 896.036 -12.4569 174.315
lfemur -5.69481 7.73597 -21.2324
ltibia 56.5625 -0 0
lfoot -26.0943 21.4634 -0.197146
ltoes -41.9365 0 0
rfemur -53.0882 -11.1082 12.967
rtibia 39.4081 -0 0
rfoot 19.3182 0.849183 0.401167
rtoes 0.422503 -0 0
lowerback 13.6593 0.339061 -7.12
upperback -0.45209 -0.578564 2.22614
thorax -8.09943 0.0469064 6.57442
lowerneck -1.69976 -5.27686 -8.04638
upperneck 9.11175 -7.12763 1.25929
head 3.65083 -3.8776 1.53684
lclavicle 6.18289e-14 8.30124e-15 2.84658e-31
lhumerus -13.6423 -33.7994 90.2611
lradius 84.4521 -0 0
lwrist 1.88107 0 0
lhand -18.9614 38.1456 0
lfingers 7.12502 -0 0
lthumb -3.62535 70.6065 -0.48397
rclavicle 3.4323e-15 -1.4788e-14 1.12982e-30
rhumerus 32.3891 4.66679 -71.1584
rradius 88.1872 -0 0
rwrist -18.7632 0 0
rhand 64.2658 -49.4184 -0.0233773
rfingers 7.12502 -0 0
rthumb 24.0035 -62.3059 0.0208463
2046
root -3.33815 15.1603 20.9527 895.736 -12.7523 174.341
lfemur -4.72249 7.19722 -21.1684
ltibia 56.6133 -0 0
lfoot -26.4177 22.2846 -0.204149
ltoes -42.2122 0 0
rfemur -53.1952 -11.258 12.9222
rtibia 38.2929 -0 0
rfoot 21.5907 1.23126 0.308936
rtoes 0.790226 -0 0
lowerback 13.4413 0.547677 -6.94353
upperback -0.451189 -0.263663 2.08847
thorax -8.02677 0.187293 6.25324
lowerneck -1.97405 -5.56441 -8.07695
upperneck 9.80588 -7.51132 1.12942
head 3.96592 -4.09841 1.46168
lclavicle 6.57578e-14 8.21547e-15 2.2392e-31
lhumerus -17.0817 -33.1186 91.6654
lradius 87.6068 -0 0
lwrist 3.66626 0 0
lhand -19.0257 38.1804 -0.003546
lfingers 7.12502 -0 0
lthumb -4.55235 71.2922 -0.530858
rclavicle 9.53199e-15 -1.5254e-14 1.0544e-30
rhumerus 33.3803 4.29824 -71.1155
rradius 81.8818 -0 0
rwrist -15.6303 0 0
rhand 63.1466 -49.3406 -0.0899329
rfingers 7.12502 -0 0
rthumb 23.5792 -62.4137 0.0160787
2047
root -3.35855 15.1282 20.7562 895.344 -12.9026 174.161
lfemur -3.98976 6.78991 -21.1263
ltibia 56.6664 -0 0
lfoot -26.7446 23.1144 -0.206516
ltoes -42.5309 0 0
rfemur -53.338 -11.4581 12.8628
rtibia 37.9042 0 0
rfoot 23.5691 1.56078 0.216331
rtoes 1.06625 -0 0
lowerback 13.264 0.838153 -6.90972
upperback -0.416764 0.12479 1.83445
thorax -7.94899 0.365234 5.8749
lowerneck -2.03581 -5.85725 -8.29028
upperneck 10.3616 -7.94503 1.39415
head 4.22907 -4.33103 1.55428
lclavicle 6.92298e-14 8.13967e-15 1.65352e-31
lhumerus -20.726 -32.3102 93.106
lradius 90.6428 -0 0
lwrist 5.75142 0 0
lhand -19.211 38.2808 -0.0135418
lfingers 7.12502 0 0
lthumb -5.5133 72.0034 -0.567726
rclavicle 1.53819e-14 -1.57008e-14 9.35462e-31
rhumerus 33.7221 4.17094 -71.1022
rradius 75.5008 -0 0
rwrist -12.5492 0 0
rhand 61.3588 -49.2137 -0.193042
rfingers 7.12502 -0 0
rthumb 23.2097 -62.5075 0.0112768
2048
root -3.37548 15.084 20.5618 894.709 -13.1837 173.94
lfemur -3.52744 6.53239 -21.1024
ltibia 56.721 -0 0
lfoot -27.0715 23.9442 -0.204149
ltoes -42.8862 0 0
rfemur -53.5125 -11.7032 12.7908
rtibia 38.0461 -0 0
rfoot 25.2003 1.83001 0.131436
rtoes 1.23978 -0 0
lowerback 13.3073 1.14408 -6.95791
upperback -0.1936 0.491633 1.49589
thorax -7.78457 0.520394 5.45937
lowerneck -2.29942 -6.29804 -8.35458
upperneck 11.271 -8.58833 1.79748
head 4.19324 -4.63998 1.48409
lclavicle 7.2191e-14 8.07502e-15 1.11768e-31
lhumerus -24.5157 -31.3742 94.5462
lradius 93.5304 -0 0
lwrist 8.10128 0 0
lhand -19.5058 38.4404 -0.0287725
lfingers 7.12502 -0 0
lthumb -6.49854 72.7327 -0.593128
rclavicle 2.0857e-14 -1.61191e-14 7.8281e-31
rhumerus 33.7733 4.16742 -71.0613
rradius 69.1199 -0 0
rwrist -9.55454 0 0
rhand 58.9659 -49.0389 -0.324741
rfingers 7.12502 -0 0
rthumb 22.905 -62.5849 0.00686141
2049
root -3.37238 15.0186 20.3883 893.916 -14.1872 173.792
lfemur -3.36634 6.44257 -21.0946
ltibia 56.7765 -0 0
lfoot -27.3949 24.7654 -0.197146
ltoes -43.2713 0 0
rfemur -53.7146 -11.9876 12.7081
rtibia 38.4562 -0 0
rfoot 26.4312 2.03156 0.0623007
rtoes 1.30002 0 0
lowerback 13.8619 1.36468 -7.24349
upperback 0.0846358 0.668034 1.27158
thorax -7.82478 0.596923 5.34523
lowerneck -2.48949 -6.84105 -8.53681
upperneck 11.6789 -9.34926 2.13693
head 4.41357 -5.01182 1.55376
lclavicle 7.45878e-14 8.02269e-15 6.59527e-32
lhumerus -28.3939 -30.3157 95.9518
lradius 96.2401 -0 0
lwrist 10.6805 0 0
lhand -19.8986 38.6532 -0.0477865
lfingers 7.12502 -0 0
lthumb -7.49836 73.473 -0.606079
rclavicle 2.58325e-14 -1.64992e-14 6.09425e-31
rhumerus 33.9221 4.15699 -70.9425
rradius 62.8145 -0 0
rwrist -6.68097 0 0
rhand 56.0313 -48.8174 -0.476086
rfingers 7.12502 -0 0
rthumb 22.675 -62.6433 0.00325635
2050
root -3.37069 14.9391 20.2138 893.18 -15.3522 173.366
lfemur -3.33288 6.36578 -21.0784
ltibia 56.8319 -0 0
lfoot -27.7115 25.5697 -0.185795
ltoes -43.6796 0 0
rfemur -53.9404 -12.306 12.6168
rtibia 39.1113 -0 0
rfoot 27.2087 2.1581 0.0164009
rtoes 1.30868 -0 0
lowerback 14.3175 1.73614 -7.7829
upperback 0.562843 0.999665 1.05017
thorax -7.61962 0.735399 5.34444
lowerneck -2.79819 -7.62057 -9.07552
upperneck 11.8843 -10.3911 2.61722
head 4.63916 -5.51393 1.69524
lclavicle 7.63664e-14 7.98386e-15 3.05401e-32
lhumerus -32.3079 -29.1448 97.2932
lradius 98.7421 -0 0
lwrist 13.4539 0 0
lhand -20.3779 38.913 -0.069008
lfingers 7.12502 -0 0
lthumb -8.50305 74.217 -0.606079
rclavicle 3.01835e-14 -1.68315e-14 4.30753e-31
rhumerus 34.1616 4.13955 -70.7512
rradius 56.6606 -0 0
rwrist -3.96304 0 0
rhand 52.6182 -48.5504 -0.637523
rfingers 7.12502 -0 0
rthumb 22.5297 -62.6801 0.000857986
